P1
# image tests avec 3 contours - exemple 2 du cours sur les contours multiples
8 6
00000000
00100000
01111000
01101000
00101110
00000000